<?xml version="1.0"?>
<svg xmlns="http://www.w3.org/2000/svg" xmlns:xlink="http://www.w3.org/1999/xlink" version="1.1" id="Layer_1" x="0px" y="0px" viewBox="0 0 512.001 512.001" style="enable-background:new 0 0 512.001 512.001;" xml:space="preserve" width="512px" height="512px" class=""><g><g>
	<g>
		<path d="M403.105,73.347L327.813,4.936c-7.762-7.055-19.776-6.479-26.83,1.285c-3.469,3.818-5.083,8.663-4.915,13.44    c-7.915-10.992-20.812-18.156-35.391-18.156c-15.538,0-29.169,8.136-36.888,20.373c0.708-5.351-0.847-10.967-4.761-15.276    c-7.054-7.765-19.066-8.337-26.829-1.285L116.906,73.73c-4.913,4.463-7.138,11.168-5.87,17.684s5.845,11.897,12.071,14.193    l81.751,30.185c0,215.575,0,10.039,0,350.968c0,13.94,11.188,25.241,25.129,25.241c13.941,0,25.241-11.3,25.241-25.241V285.01    h10.898v201.75c0,13.94,11.3,25.241,25.241,25.241c13.94,0,25.24-11.3,25.24-25.241c0-333.371-0.224-145.719-0.224-351.847    l80.52-29.689c6.229-2.297,10.805-7.678,12.072-14.193S408.018,77.81,403.105,73.347z M289.147,104.471h-16.451    c0.667,0.97,0.647,2.061,0.166,2.937l-6.896,12.542c0.267,0.485,7.668,13.927,7.912,14.425c0.79,1.6,1.028,3.421,0.655,5.173    l-12.177,57.359c-0.422,1.983-3.276,1.966-3.67-0.024l-11.394-57.386c-0.365-1.839-0.07-3.746,0.833-5.388l7.786-14.159    l-6.896-12.542c-0.481-0.873-0.505-1.971,0.166-2.937h-19.353l-64.211-23.675c56.208-51.072,52.423-47.563,53.432-48.675    c-1.277,4.1-1.965,8.459-1.965,12.978c0,24.076,19.518,43.593,43.593,43.593s43.593-19.518,43.593-43.593    c0-4.046-0.563-7.959-1.595-11.679l51.719,46.993L289.147,104.471z" data-original="#000000" class="active-path" data-old_color="#000000" fill="#FFFFFF"/>
	</g>
</g><g>
	<g>
		<path d="M440.89,282.928l-46.924-24.999c-4.337-2.31-9.727-0.667-12.037,3.669l-34.147,64.096    c-2.311,4.337-0.668,9.727,3.669,12.037l46.923,24.999c4.338,2.31,9.727,0.667,12.038-3.669l34.147-64.096    C446.869,290.627,445.226,285.238,440.89,282.928z" data-original="#000000" class="active-path" data-old_color="#000000" fill="#FFFFFF"/>
	</g>
</g><g>
	<g>
		<path d="M462.872,422.556l-72.528-3.733c-4.907-0.253-9.091,3.521-9.344,8.429l-2.733,53.097c-0.252,4.907,3.521,9.09,8.429,9.344    l72.528,3.733c4.907,0.253,9.091-3.521,9.344-8.429l2.733-53.097C471.554,426.992,467.779,422.809,462.872,422.556z" data-original="#000000" class="active-path" data-old_color="#000000" fill="#FFFFFF"/>
	</g>
</g><g>
	<g>
		<path d="M144.766,329.052l-50.953-51.751c-3.448-3.501-9.081-3.546-12.583-0.098l-37.886,37.301    c-3.501,3.448-3.546,9.081-0.098,12.583l50.953,51.751c3.448,3.501,9.081,3.546,12.583,0.098l37.886-37.301    C148.169,338.187,148.214,332.554,144.766,329.052z" data-original="#000000" class="active-path" data-old_color="#000000" fill="#FFFFFF"/>
	</g>
</g></g> </svg>
